Coordinates
version=1
nRows=8
nColumns=40
inDegrees=yes

Units are S.I. units (second, meters, Newtons, ...)
Angles are in degrees.

endheader
time	pelvis_tilt	pelvis_list	pelvis_rotation	pelvis_tx	pelvis_ty	pelvis_tz	hip_flexion_r	hip_adduction_r	hip_rotation_r	knee_angle_r	knee_angle_r_beta	ankle_angle_r	subtalar_angle_r	mtp_angle_r	hip_flexion_l	hip_adduction_l	hip_rotation_l	knee_angle_l	knee_angle_l_beta	ankle_angle_l	subtalar_angle_l	mtp_angle_l	lumbar_extension	lumbar_bending	lumbar_rotation	arm_flex_r	arm_add_r	arm_rot_r	elbow_flex_r	pro_sup_r	wrist_flex_r	wrist_dev_r	arm_flex_l	arm_add_l	arm_rot_l	elbow_flex_l	pro_sup_l	wrist_flex_l	wrist_dev_l
      6.07000000	     -3.06349817	     -6.09220694	      1.69735925	      0.91082389	      0.93476789	      0.51799773	      9.12894913	      5.63454104	    -19.58318896	     12.32531547	     12.32531547	      9.47915701	      6.77162668	     -3.22899027	     32.23198365	    -13.61225642	     -1.00460393	     62.02726940	     62.02726940	     10.25244896	    -18.51550441	     13.69619624	     -9.47039604	      8.22155012	      4.52295817	     20.11689475	    -18.97496729	    -12.78368329	     68.98666550	     45.35795725	      0.00000000	      0.00000000	     -2.02236606	     -7.94783787	     -1.73507442	     27.47329762	     45.26551321	      0.00000000	      0.00000000
      6.08171429	     -3.15446627	     -5.97439579	      1.78542576	      0.90979824	      0.93490780	      0.51788942	      8.64109951	      5.57186394	    -19.46333880	     12.04960336	     12.04960336	      9.72332378	      6.73923755	     -3.25705826	     32.94552866	    -13.42195222	     -1.08905661	     59.26272969	     59.26272969	     10.42381360	    -18.56720493	     13.81330361	     -9.43915523	      8.13537863	      4.51400403	     21.39549989	    -18.90213426	    -12.83990874	     70.53459992	     45.31485009	      0.00000000	      0.00000000	     -3.23547347	     -7.81484716	     -1.65559516	     27.06046897	     45.24000147	      0.00000000	      0.00000000
      6.09342857	     -3.21655019	     -5.90398685	      1.89180484	      0.90882395	      0.93499605	      0.51773438	      8.09939385	      5.56466083	    -19.40507770	     11.72549777	     11.72549777	      9.94900092	      6.78129647	     -3.30878270	     33.44778905	    -13.23891954	     -1.14934712	     56.23253050	     56.23253050	     10.48696271	    -18.53248571	     13.84331042	     -9.46361799	      8.12552724	      4.40641263	     22.58764680	    -18.77868614	    -12.80465567	     72.64103885	     45.25073081	      0.00000000	      0.00000000	     -4.55069162	     -7.68496378	     -1.55306522	     26.77337286	     45.20985752	      0.00000000	      0.00000000
      6.10514286	     -3.41249468	     -5.84260538	      1.95507573	      0.90773534	      0.93477458	      0.51753309	      7.77894002	      5.54081083	    -19.31738478	     11.51451555	     11.51451555	     10.19161275	      6.77020752	     -3.38874959	     33.96696856	    -13.03279113	     -1.21533016	     53.05336424	     53.05336424	     10.54237338	    -18.40467468	     14.07638311	     -9.33669071	      8.10256044	      4.67481293	     23.79948346	    -19.08227779	    -12.89860403	     73.90518570	     45.21876774	      0.00000000	      0.00000000	     -5.63761404	     -7.45300801	     -1.49036632	     26.51453505	     45.18427693	      0.00000000	      0.00000000
      6.11685714	     -3.38839615	     -5.80014065	      2.11498874	      0.90679619	      0.93481792	      0.51717344	      7.12698283	      5.56118506	    -19.35332948	     11.13679931	     11.13679931	     10.37553856	      6.87551982	     -3.48218414	     34.05806212	    -12.72706593	     -1.11759236	     49.59009825	     49.59009825	     10.39318541	    -18.32038734	     13.97659708	     -9.51056051	      8.14510537	      4.37790718	     24.74771479	    -18.75934710	    -12.65030122	     77.09030672	     45.11419256	      0.00000000	      0.00000000	     -6.95303360	     -7.36176676	     -1.31463159	     26.39354459	     45.14437244	      0.00000000	      0.00000000
      6.12857143	     -3.49862131	     -5.67159421	      2.20676318	      0.90575663	      0.93459851	      0.51671554	      6.70608307	      5.45764151	    -19.27182136	     10.91361887	     10.91361887	     10.63259697	      6.85015365	     -3.60157642	     34.15164833	    -12.31308622	     -1.07949476	     46.01621427	     46.01621427	     10.30478849	    -18.07080519	     14.11279723	     -9.49441110	      8.04997852	      4.54515270	     25.69365387	    -18.85225268	    -12.61053104	     78.90967670	     45.06122896	      0.00000000	      0.00000000	     -7.91855355	     -7.26012933	     -1.19295179	     26.20094309	     45.11528878	      0.00000000	      0.00000000
      6.14028571	     -3.64648843	     -5.67126346	      2.34256362	      0.90466585	      0.93408333	      0.51613446	      6.31716808	      5.49258884	    -19.26998561	     10.64263406	     10.64263406	     10.81432338	      6.82946730	     -3.88086274	     34.24226743	    -11.99112497	     -0.92554013	     42.39154634	     42.39154634	      9.80292805	    -17.68520414	     12.94245795	     -9.52658901	      8.13996732	      4.95340783	     25.93616236	    -19.36474532	    -12.55907028	     82.62336756	     44.96097271	      0.00000000	      0.00000000	     -8.77595898	     -7.15681764	     -0.67592165	     26.31709533	     45.05002185	      0.00000000	      0.00000000
      6.15200000	     -3.78543761	     -5.58656795	      2.48016463	      0.90353254	      0.93357044	      0.51540099	      5.96502037	      5.41651350	    -19.20543849	     10.46950252	     10.46950252	     11.09956842	      6.71483555	     -3.99995034	     34.27038262	    -11.54480839	     -0.74933790	     38.85082357	     38.85082357	      9.83617709	    -16.94822810	     13.20536662	     -9.47528270	      8.09871235	      4.92827547	     27.11124241	    -19.23240006	    -12.62281149	     83.92061126	     44.92972128	      0.00000000	      0.00000000	     -9.54995774	     -7.01441430	     -0.52946566	     25.90881511	     45.02091383	      0.00000000	      0.00000000
